<svg xmlns="http://www.w3.org/2000/svg" xml:space="preserve" id="Camada_1" x="0" y="0" version="1.1" viewBox="0 0 1024 1024" class="bg">
  <style>
    .bg{background-color: #fff;}
    .st0{fill:#3e804a}
  </style>
  <path d="M394.6 530.4c41.9.2 80.9-1.2 119.7 1.1 38.7 2.3 75.7 54 44.5 97.1-9.7 13.5-23.1 22-40.5 22.7-3.2.1-6.5 0-10.3 0-1 7.5-1.6 14.6-2.9 21.6-3.9 21.7-14.2 39.2-36 46.3-24.5 7.9-46.6 1.6-65.4-15.5-18.1-16.4-24.8-38.6-26.4-61.8-2.1-29.4-2-58.9-2.9-91.5 4.8 3.7 7.7 5.5 10 7.8 22.6 21.9 45.2 43.8 67.7 65.7 10.3 10.1 20.8 8.1 26.3-4.7 3.4-8-2.7-11.5-6.9-15.5-13.6-12.8-27.8-25-41.4-37.8-11.4-10.8-22.2-22.2-35.5-35.5z" class="st0"/>
  <path fill="#1b5628" d="M511.1 375.9c3.3.7 8.8 1.4 14.1 2.9 26.8 7.8 46.9 33 44.7 58.7-2.4 29.1-19.9 52.6-53.1 60-6.3 1.4-12.9 1.9-19.4 2-35 .7-69.9 1.2-107 1.9 7.1-7.2 12.8-13.8 19.2-19.5 21.4-19.4 43-38.4 64.4-57.7 10.4-9.4 10.8-15.6 2.6-23.9-5.5-5.6-11-5.3-16.4-.4-13.5 12.4-27.2 24.7-40.3 37.5-13.6 13.2-26.6 27.1-39.9 40.6-.6.6-1.6.7-2.2.9-.6-.3-1.2-.5-1.2-.6 1-43.3-4.5-87.3 12.1-129.2 9.7-24.3 27.5-38 53.1-40.4 24.3-2.3 45.5 5.1 57.2 27.8 6 11.5 7.9 25.2 12.1 39.4z"/>
  <path d="M342.3 478.8c-11.9-11.5-23.8-23-35.6-34.6-14.3-14-28.6-28-42.8-42.1-5.1-5-10.1-8.6-16.7-2.1-7.6 7.4-8.5 12.7-1.1 20 15.6 15.5 32.1 30 47.6 45.6 11 11.1 20.8 23.4 29.2 33-35.5-.2-74.7.5-113.8-1-24.6-.9-50-23.7-54.6-48.5-4.5-24.3 1.6-48.7 26.7-63.6 6.8-4 15-6.3 22.9-7.6 9.4-1.7 14.7-4 15-15.5.3-10.3 2.8-21.9 8.3-30.4 15.8-24.3 46.8-30.9 74.1-18.4 22.9 10.5 36.9 28.6 39.1 52.7 3.4 36.9 3.8 74.2 5.5 111.3-1.4.4-2.6.8-3.8 1.2zM325.7 531c-21 19.3-40.2 36.9-59.3 54.5-6 5.6-12.5 10.8-17.6 17.1-2.8 3.5-5 9-4.5 13.3 1.5 11.3 12.2 14.9 20.7 7.2 22.3-20.3 44.3-41 66.5-61.5 3.3-3 6.9-5.5 10.3-8.2 1.2 1.2 2.1 1.6 2.1 2-1.4 33.4-1.2 66.9-5.1 100-1.7 14.5-9.9 29.2-18.5 41.6-14.5 21.2-44.1 28.6-68.7 20.1-22.1-7.7-35.9-28.7-36.3-55.3-.1-3.2-.3-6.4-.5-9.7-8-1.5-15.6-2.2-22.7-4.4-23.1-7.1-36.1-23.8-39-47.1-3-24.3 6.3-44.6 26.4-58.8 13.3-9.4 28.6-14.5 45.2-14.1 31.2.7 62.3 1.4 93.5 2.1 1.4.2 2.9.6 7.5 1.2z" class="st0"/>
  <path fill="#4a8482" fill-rule="evenodd" d="m420.6 754.7-43.1-30.9V804c0 36.2 29.4 65.6 65.6 65.6h141.7c36.2 0 65.6-29.4 65.6-65.6V648.4H806c36.2 0 65.6-29.4 65.6-65.6V441.2c0-36.2-29.4-65.6-65.6-65.6H650.3V219.9c0-36.2-29.4-65.6-65.6-65.6H443c-36.2 0-65.6 29.4-65.6 65.6v84.2l43.1-34.9v-49.4c0-12.3 10.1-22.4 22.4-22.4h141.7c12.3 0 22.4 10.1 22.4 22.4v176.5l22.4 22.4H806c12.3 0 22.4 10.1 22.4 22.4v141.7c0 12.3-10.1 22.4-22.4 22.4H629.5l-22.4 22.4v176.5c0 12.3-10.1 22.4-22.4 22.4H443c-12.3 0-22.4-10.1-22.4-22.4v-49.4z" clip-rule="evenodd"/>
</svg>