<svg xmlns="http://www.w3.org/2000/svg" xmlSpace="preserve" class="bg" viewBox="0 0 1024 1024">
  <style>
    .bg{background-color: #fff;}
    .st26{fill:#a3b336}.st27{fill:#3d6529}.st28{fill:#e9d03b}
  </style>
  <path fill="#698e4d" d="M306.8 223.3c.1.5-.1.9 0 1.4-1.3.7-3.2 1.9-4.2 2.8v-1.4c.2-.1.7-3.4 4.2-2.8z"/>
  <path d="M161.4 809.6h143.2v53.1H161.4z" class="st26"/>
  <path d="M730.9 427.5h143.2v435.7H730.9z" class="st27"/>
  <path d="M730.9 479.9h143.2v110H730.9z" class="st28"/>
  <path d="M730.9 590.3h143.2v164.4H730.9z" class="st26"/>
  <path d="M541 590.3h143.2v272.9H541z" class="st27"/>
  <path d="M541 646.8h143.2v53.1H541z" class="st28"/>
  <path d="M541 700.2h143.2v53.1H541z" class="st26"/>
  <path d="M351.2 809.6h143.2v53.1H351.2z" class="st27"/>
  <path d="M351.2 756.1h143.2v53.1H351.2z" class="st26"/>
  <path d="M351.2 702.9h143.2V756H351.2z" class="st28"/>
  <path d="M282.3 677.2c19.4-.7 29.8 23.5 12.5 34.3 18.9 13.2 4.6 38.7-17.1 33.7-14.3-3.3-27.5-24.4-40.2-32 5.6-.9 40.1.6 42.1-.2 1.1-.4 1.1-2.5 0-2.9-2-.8-37.2.5-42.8.2 13.8-8.4 28.4-32.5 45.5-33.1zm-100.5 0c18-.7 32.8 23.8 46.7 32.7-5.6.9-40.1-.6-42.1.2-1.1.4-1.1 2.5 0 2.9 2 .7 36.5-.7 42.1.2-11.6 7.1-25.1 26.5-37.2 31.1-23.7 8.8-39.6-20.2-20-32.4-16.4-10.5-8-34 10.5-34.7zm49.7 38.7c.2 5.6-.8 38.9-.2 40.8.4 1.4 2.8 1.4 3.3 0 .7-2.2-.6-34.7-.2-40.8 6.7 10.2 23.5 23.2 28.8 32 15.1 25.3-16 45.8-30.4 24.2-10 17.4-36.8 8-34-14.5 1.9-14.1 25.1-29.7 32.7-41.7zm-16.2-74.2c7.3-.8 14.2 2.4 17.6 9.1 8.6-15 29.5-10.1 33.7 4.4 6.2 21.6-22.4 35.8-32.4 52.5-.1-5 1.5-40.5.2-42.1-.8-1-2.5-.7-2.9.7-.6 2 .1 36.1.5 41.5-9.9-16.6-35.3-28.8-33-49.3.8-8.1 8.2-15.9 16.3-16.8z" class="st26"/>
  <path d="M849.8 296.6c19.2-.7 29.5 23.3 12.4 34 18.7 13.1 4.5 38.4-16.9 33.4-14.2-3.3-27.3-24.2-39.8-31.8 5.6-.8 39.8.6 41.8-.2 1.1-.4 1.1-2.5 0-2.9-2-.7-36.9.5-42.4.2 13.5-8.2 27.9-32.1 44.9-32.7zm-99.7 0c17.9-.7 32.5 23.6 46.3 32.4-5.6.8-39.8-.6-41.8.2-1.1.4-1.1 2.5 0 2.9 2 .7 36.2-.7 41.8.2-11.5 7.1-24.9 26.3-36.9 30.8-23.5 8.7-39.3-20-19.8-32.1-16.3-10.4-7.9-33.7 10.4-34.4zm49.3 38.4c.2 5.5-.8 38.5-.2 40.5.4 1.4 2.8 1.4 3.2 0 .7-2.2-.6-34.4-.2-40.5 6.7 10.1 23.3 23 28.5 31.8 15 25.1-15.8 45.4-30.2 24-9.9 17.3-36.5 8-33.7-14.4 2-14 25.1-29.6 32.6-41.4zm-16.1-73.6c7.3-.8 14.1 2.3 17.4 9 8.5-14.9 29.2-10 33.4 4.4 6.2 21.4-22.2 35.5-32.1 52.1-.1-5 1.5-40.1.2-41.8-.8-1-2.5-.7-2.9.6-.6 2 .1 35.8.5 41.1-9.9-16.5-35.1-28.5-32.7-48.9.8-7.9 8.2-15.6 16.2-16.5z" class="st28"/>
  <path d="m456.8 354.2-61.3 122.4 2.1 1.1c23.2-39.3 46.2-78.8 65.4-120.3 5.6 32.6 38 115.4 41.3 135.1 15 88.7-97 126.9-132.3 42.1-18.6 78.7 10.5 112.4 10.3 118.4-.7 14.8-26 28.9-35.9-18.6-6.8-32.7 3.7-73.6 15.6-104.4-83.2 20.7-118.1-86.1-46-128.5 16.5-9.7 112.2-33.1 140.8-47.3zm57.5-239.4c23.9 9.2 37.5 28 43.2 52.3 82.9-33.9 133.6 75.7 58 123-18.3 11.5-113.6 34.9-143.5 50l-1.3-1.3c27.3-39 43.8-85.9 65.3-128.8-.6-.9-3.5 1.9-3.6 2-6.2 8.1-58.2 105-66 126.4-4.9-32.5-42.3-125.7-43.2-149.1-2.3-57.2 51.9-89.6 91.1-74.5zm139.4 195.6c65.3 26.2 59.5 116.3-10.3 129.3 36 84.1-77.7 134.6-123.5 56.4-10.4-17.7-33.3-111.3-49-140.4.6-3.5 7 4.2 8.5 5 38.7 22.3 81.2 37.6 120.6 58.5l1.1-2.1c-42.8-22.4-83.2-49.8-128-68.1 47.7-7.1 137.5-55.9 180.6-38.6zm-284.2-147c58.7 23.3 61.2 124.9 87.8 176.1-42.1-23.8-86.8-42.5-130.1-64l-1.1 2.1c43.5 21.9 83.4 50.9 129 68.7-37.4 4.5-130.7 44.4-158.9 42-81.5-6.9-91.8-118.5-10.8-133.7-28-54.5 28.3-113.3 84.1-91.2z" class="st27"/>
</svg>