<svg
  xmlns="http://www.w3.org/2000/svg"
  xmlSpace="preserve"
  class="bg"
  viewBox="0 0 712.7 752.1"
>
  <style>
    .bg{background-color: #fff;}
  </style>
  <path
    fill="#698e4d"
    d="M145.4 112.2c.1.5-.1.9 0 1.4-1.3.7-3.2 1.9-4.2 2.8V115c.3-.1.7-3.4 4.2-2.8z"
  />
  <path d="M0 698.5h143.2v53.1H0z" fill="#a3b336" />
  <path d="M569.5 316.4h143.2v435.7H569.5z" fill="#3d6529" />
  <path d="M569.5 368.8h143.2v110H569.5z" fill="#e9d03b" />
  <path d="M569.5 479.3h143.2v164.4H569.5z" fill="#a3b336" />
  <path d="M379.7 479.3h143.2v272.9H379.7z" fill="#3d6529" />
  <path d="M379.7 535.8h143.2v53.1H379.7z" fill="#e9d03b" />
  <path d="M379.7 589.1h143.2v53.1H379.7z" fill="#a3b336" />
  <path d="M189.8 698.5H333v53.1H189.8z" fill="#3d6529" />
  <path d="M189.8 645H333v53.1H189.8z" fill="#a3b336" />
  <path d="M189.8 591.8H333v53.1H189.8z" fill="#e9d03b" />
  <path
    d="M120.9 566.1c19.4-.7 29.8 23.5 12.5 34.3 18.9 13.2 4.6 38.7-17.1 33.7-14.3-3.3-27.5-24.4-40.2-32 5.6-.9 40.1.6 42.1-.2 1.1-.4 1.1-2.5 0-2.9-2-.8-37.2.5-42.8.2 13.9-8.3 28.4-32.4 45.5-33.1zm-100.5 0c18-.7 32.8 23.8 46.7 32.7-5.6.9-40.1-.6-42.1.2-1.1.4-1.1 2.5 0 2.9 2 .7 36.5-.7 42.1.2-11.6 7.1-25.1 26.5-37.2 31.1C6.2 642-9.7 613 9.9 600.8c-16.4-10.5-7.9-34 10.5-34.7zm49.8 38.7c.2 5.6-.8 38.9-.2 40.8.4 1.4 2.8 1.4 3.3 0 .7-2.2-.6-34.7-.2-40.8 6.7 10.2 23.5 23.2 28.8 32 15.1 25.3-16 45.8-30.4 24.2-10 17.4-36.8 8-34-14.5 1.8-14.1 25.1-29.7 32.7-41.7zm-16.3-74.1c7.3-.8 14.2 2.4 17.6 9.1 8.6-15 29.5-10.1 33.7 4.4 6.2 21.6-22.4 35.8-32.4 52.5-.1-5 1.5-40.5.2-42.1-.8-1-2.5-.7-2.9.7-.6 2 .1 36.1.5 41.5-9.9-16.6-35.3-28.8-33-49.3.8-8.2 8.2-16 16.3-16.8z"
    fill="#a3b336"
  />
  <path
    d="M688.4 185.5c19.2-.7 29.5 23.3 12.4 34 18.7 13.1 4.5 38.4-16.9 33.4-14.2-3.3-27.3-24.2-39.8-31.8 5.6-.8 39.8.6 41.8-.2 1.1-.4 1.1-2.5 0-2.9-2-.7-36.9.5-42.4.2 13.5-8.1 28-32.1 44.9-32.7zm-99.7 0c17.9-.7 32.5 23.6 46.3 32.4-5.6.8-39.8-.6-41.8.2-1.1.4-1.1 2.5 0 2.9 2 .7 36.2-.7 41.8.2-11.5 7.1-24.9 26.3-36.9 30.8-23.5 8.7-39.3-20-19.8-32.1-16.3-10.4-7.8-33.7 10.4-34.4zm49.4 38.4c.2 5.5-.8 38.5-.2 40.5.4 1.4 2.8 1.4 3.2 0 .7-2.2-.6-34.4-.2-40.5 6.7 10.1 23.3 23 28.5 31.8 15 25.1-15.8 45.4-30.2 24-9.9 17.3-36.5 8-33.7-14.4 2-14 25-29.5 32.6-41.4zM622 150.4c7.3-.8 14.1 2.3 17.4 9 8.5-14.9 29.2-10 33.4 4.4 6.2 21.4-22.2 35.5-32.1 52.1-.1-5 1.5-40.1.2-41.8-.8-1-2.5-.7-2.9.6-.6 2 .1 35.8.5 41.1-9.9-16.5-35.1-28.5-32.7-48.9.8-7.9 8.1-15.7 16.2-16.5z"
    fill="#e9d03b"
  />
  <path
    d="m295.4 243.1-61.3 122.4 2.1 1.1c23.2-39.3 46.2-78.8 65.4-120.3 5.6 32.6 38 115.4 41.3 135.1 15 88.7-97 126.9-132.3 42.1-18.6 78.7 10.5 112.4 10.3 118.4-.7 14.8-26 28.9-35.9-18.6-6.8-32.7 3.7-73.6 15.6-104.4-83.2 20.7-118.1-86.1-46-128.5 16.5-9.7 112.2-33.1 140.8-47.3zM352.9 3.7c23.9 9.2 37.5 28 43.2 52.3 82.9-33.9 133.6 75.7 58 123-18.3 11.5-113.6 34.9-143.5 50l-1.3-1.3c27.3-39 43.8-85.9 65.3-128.8-.6-.9-3.5 1.9-3.6 2-6.2 8.1-58.2 105-66 126.4-4.9-32.5-42.3-125.7-43.2-149.1-2.2-57.2 51.9-89.6 91.1-74.5zm139.4 195.6c65.3 26.2 59.5 116.3-10.3 129.3 36 84.1-77.7 134.6-123.5 56.4-10.4-17.7-33.3-111.3-49-140.4.6-3.5 7 4.2 8.5 5 38.7 22.3 81.2 37.6 120.6 58.5l1.1-2.1c-42.8-22.4-83.2-49.8-128-68.1 47.7-7 137.5-55.9 180.6-38.6zm-284.2-147c58.7 23.3 61.2 124.9 87.8 176.1-42.1-23.8-86.8-42.5-130.1-64l-1.1 2.1c43.5 21.9 83.4 50.9 129 68.7-37.4 4.5-130.7 44.4-158.9 42C53.3 270.3 43 158.7 124 143.5 96 89 152.3 30.2 208.1 52.3z"
    fill="#3d6529"
  />
</svg>