<svg xmlns="http://www.w3.org/2000/svg" xml:space="preserve" id="Camada_1" x="0" y="0" version="1.1" viewBox="0 0 1024 1024">
  <style>
    .st0{fill:#fff}.st3{fill:#746058}.st5{fill:#4ca99a}
  </style>
  <path d="M.2-.4h1024v1024H.2z" class="st0"/>
  <path fill="#746058" fill-rule="evenodd" d="m195 440.1-8.1-8.1 110.5-110.5L407.9 432l-92 88.9 9.6 9.6L426.8 432 297.4 302.6 168 432l17.5 17.5z" clip-rule="evenodd"/>
  <path fill="#4ca99a" fill-rule="evenodd" d="M235.3 328.5 117 446.8l109.3 108.6 44.1-42.6 10.8 10.8-54.9 52L96.9 446.8l138.4-138.5 20.2 20.2-10.1 10.1z" clip-rule="evenodd"/>
  <path d="M185.6 438h161.5v11.5H185.6z" class="st3"/>
  <path fill="#f08cb8" d="M192.1 555.1c-.4 0-.8-.1-1.2-.3-1-.6-1.5-1.8-1.1-2.9l38.6-108.7-13.6-7.1-101.6-53c-1-.5-1.5-1.7-1.2-2.8.3-1 1.2-1.7 2.3-1.7h.3l31.9 3.4c.3 0 .7.1 1 .3l11.1 6.6-75.4-57.6c-.9-.7-1.2-1.8-.8-2.8.4-.9 1.3-1.5 2.2-1.5h.4l153.4 23.4c.6.1 1.1.4 1.4.8l59.4 67.5-9.8-18.6c-.3-.6-.4-1.4-.1-2.1s.8-1.2 1.5-1.4l51-14.8c.2-.1.4-.1.7-.1.5 0 1 .2 1.4.5l32.5 24.1c.8.6 1.1 1.6.9 2.5-.2.9-1 1.6-2 1.8l-33.4 4.9h-.3c-1.1 0-2.1-.8-2.3-1.9l-1.6-7.1-8.7 42.6c-.2.8-.7 1.4-1.4 1.7l-10.7 4.8-83.9 37.7 7-.9h.3c.9 0 1.7.5 2.1 1.2.5.9.4 1.9-.3 2.7l-48.2 57.8c-.4.7-1.1 1-1.8 1z"/>
  <path d="m84.5 329.3 153.4 23.4 72.8 82.7-19.3-36.5 51-14.8 32.5 24.1-33.4 4.9-4.1-17.9-10.9 53.5-10.7 4.8-19 8.6-79.8 35.8 23.2-3.1-48.2 57.8L231.3 442l-15.5-8.1-29.6-15.4-72-37.6 31.9 3.4 46 27.2-107.6-82.2m0-4.8c-1.9 0-3.7 1.1-4.4 2.9-.9 2-.2 4.4 1.5 5.7l60 45.9-26.9-2.8h-.5c-2.1 0-4 1.4-4.6 3.4-.7 2.2.3 4.6 2.4 5.6l72 37.6 29.6 15.4 11.8 6.1L187.5 551c-.8 2.2.1 4.6 2.1 5.8.7.4 1.6.6 2.4.6 1.4 0 2.8-.6 3.7-1.7l48.2-57.8c.7-.8 1.2-1.9 1.2-3.1 0-1.4-.6-2.7-1.6-3.6l55.3-24.8 19-8.6 10.7-4.8c1.4-.6 2.4-1.9 2.7-3.4l6.8-33.2c.9 1 2.2 1.5 3.5 1.5.2 0 .5 0 .7-.1l33.4-4.9c1.9-.3 3.5-1.7 4-3.6.5-1.9-.2-3.9-1.8-5l-32.5-24.1c-.8-.6-1.8-.9-2.9-.9-.4 0-.9.1-1.3.2l-51 14.8c-1.4.4-2.5 1.4-3.1 2.7-.6 1.3-.5 2.8.2 4.1l.3.6-46-52.2c-.7-.8-1.8-1.4-2.9-1.6L85.3 324.5h-.8z" class="st0"/>
  <path d="m259.3409 501.5364 13.8592 13.8591-10.3237 10.3237-13.8592-13.8592z" class="st5"/>
  <path d="M362.2 448.9h44v45.7h-44z" class="st0"/>
  <path d="M415.4 515v7.3c0 3.7-.8 7.1-2.4 10.4-1.6 3.3-3.7 6.2-6.5 8.7-2.8 2.5-6 4.6-9.7 6.1-3.7 1.5-7.7 2.2-12 2.2-3.6 0-7.4-.4-11.1-1.3-3.8-.9-7.2-2.4-10.2-4.7-3-2.2-5.5-5.1-7.4-8.6-1.9-3.5-2.9-7.9-2.9-13.4v-65.1c0-3.9.8-7.5 2.3-10.8 1.5-3.3 3.6-6.2 6.4-8.6 2.8-2.4 6.1-4.3 9.9-5.7 3.8-1.4 8.1-2.1 12.7-2.1 9 0 16.4 2.6 22.1 7.8 2.8 2.5 4.9 5.6 6.5 9.1 1.6 3.5 2.4 7.3 2.4 11.4v6.6h-19.2v-5.6c0-3.3-1.1-6.2-3.2-8.6-2.1-2.4-5-3.7-8.7-3.7-4.8 0-7.9 1.3-9.5 3.9-1.6 2.6-2.4 5.9-2.4 9.9v60.5c0 3.4.8 6.3 2.5 8.6s4.7 3.5 9.1 3.5c1.3 0 2.6-.2 4.1-.6 1.4-.4 2.8-1 4.1-1.9 1.1-.9 2.1-2.1 2.8-3.7.8-1.6 1.1-3.5 1.1-5.8V515h19.2zm14.5-56.7c0-4.8.9-9 2.8-12.6 1.9-3.7 4.4-6.7 7.5-9.1 3-2.3 6.4-4.1 10.3-5.3 3.8-1.2 7.7-1.8 11.6-1.8 3.9 0 7.8.6 11.6 1.8 3.8 1.2 7.3 3 10.5 5.3 3 2.4 5.5 5.5 7.4 9.1 1.9 3.7 2.8 7.9 2.8 12.6v62.5c0 5-.9 9.3-2.8 12.8s-4.3 6.5-7.4 8.8c-3.1 2.4-6.6 4.3-10.5 5.5-3.8 1.2-7.7 1.8-11.6 1.8-3.9 0-7.8-.6-11.6-1.8-3.8-1.2-7.3-3-10.3-5.5-3.1-2.3-5.7-5.3-7.5-8.8-1.9-3.5-2.8-7.8-2.8-12.8v-62.5zm19.2 62.5c0 4.1 1.3 7.1 3.9 9.1 2.6 1.9 5.6 2.9 9.1 2.9s6.6-1 9.1-2.9c2.6-1.9 3.9-5 3.9-9.1v-62.5c0-4.1-1.3-7.1-3.9-9.1-2.6-1.9-5.6-2.9-9.1-2.9s-6.6 1-9.1 2.9c-2.6 1.9-3.9 5-3.9 9.1v62.5zm62.2 27.9V430.4h18.5l24.7 62.6h.4l24.5-62.6H598v118.3h-19.2v-71.9h-.4l-19 50.8h-9.6L531 476.8h-.4v71.9h-19.3zm104.8 0V430.4h57.3v16h-38.1v34.7h33.2v16h-33.2v34.7h38.1v16.9h-57.3zm15.5-123.6 17-23.4H669l-25 23.4h-12.4zm54.2 123.6V430.4h30.9c22.6 0 33.9 11.6 33.9 34.7 0 7-1.2 12.9-3.7 17.8s-6.8 8.8-12.9 11.8l20.7 54h-20.4l-17.9-50.5h-11.5v50.5h-19.1zm19.3-102.4v36.9H716c3.4 0 6.1-.4 8.1-1.2 2-.8 3.6-2 4.7-3.6 1-1.6 1.7-3.5 2.1-5.7.4-2.3.6-4.9.6-7.9s-.2-5.6-.6-7.9c-.4-2.3-1.1-4.2-2.3-5.9-2.4-3.1-6.9-4.7-13.6-4.7h-9.9zM827.2 515v7.3c0 3.7-.8 7.1-2.4 10.4-1.6 3.3-3.7 6.2-6.5 8.7-2.8 2.5-6 4.6-9.7 6.1-3.7 1.5-7.7 2.2-12 2.2-3.6 0-7.4-.4-11.1-1.3s-7.2-2.4-10.2-4.7c-3-2.2-5.5-5.1-7.4-8.6-1.9-3.5-2.9-7.9-2.9-13.4v-65.1c0-3.9.8-7.5 2.3-10.8 1.5-3.3 3.6-6.2 6.4-8.6 2.8-2.4 6.1-4.3 9.9-5.7 3.8-1.4 8.1-2.1 12.7-2.1 9 0 16.4 2.6 22.1 7.8 2.8 2.5 4.9 5.6 6.5 9.1 1.6 3.5 2.4 7.3 2.4 11.4v6.6H808v-5.6c0-3.3-1.1-6.2-3.2-8.6-2.1-2.4-5-3.7-8.7-3.7-4.8 0-7.9 1.3-9.5 3.9-1.6 2.6-2.4 5.9-2.4 9.9v60.5c0 3.4.8 6.3 2.5 8.6s4.7 3.5 9.1 3.5c1.3 0 2.6-.2 4.1-.6 1.4-.4 2.8-1 4.1-1.9 1.1-.9 2.1-2.1 2.8-3.7.8-1.6 1.1-3.5 1.1-5.8V515h19.3zm16.2 33.7V430.4h19.2v118.3h-19.2zm36.8-90.4c0-4.8.9-9 2.8-12.6 1.9-3.7 4.4-6.7 7.5-9.1 3-2.3 6.4-4.1 10.3-5.3 3.8-1.2 7.7-1.8 11.6-1.8 3.9 0 7.8.6 11.6 1.8 3.8 1.2 7.3 3 10.5 5.3 3 2.4 5.5 5.5 7.4 9.1 1.9 3.7 2.8 7.9 2.8 12.6v62.5c0 5-.9 9.3-2.8 12.8s-4.3 6.5-7.4 8.8c-3.1 2.4-6.6 4.3-10.5 5.5-3.8 1.2-7.7 1.8-11.6 1.8-3.9 0-7.8-.6-11.6-1.8-3.8-1.2-7.3-3-10.3-5.5-3.1-2.3-5.7-5.3-7.5-8.8-1.9-3.5-2.8-7.8-2.8-12.8v-62.5zm19.2 62.5c0 4.1 1.3 7.1 3.9 9.1 2.6 1.9 5.6 2.9 9.1 2.9s6.6-1 9.1-2.9c2.6-1.9 3.9-5 3.9-9.1v-62.5c0-4.1-1.3-7.1-3.9-9.1-2.6-1.9-5.6-2.9-9.1-2.9s-6.6 1-9.1 2.9c-2.6 1.9-3.9 5-3.9 9.1v62.5z" class="st3"/>
  <path d="m182.5 719.2 34.3-153.7h18.3l34.3 153.7h-22l-6.5-33h-30l-6.5 33h-21.9zm54.4-53.7-10.8-55.7h-.4l-10.8 55.7h22zm43.4 53.7V565.5h35.4c25.9 0 38.9 15 38.9 45.1 0 9.1-1.4 16.8-4.2 23.1-2.8 6.3-7.7 11.4-14.8 15.3l23.7 70.1H336l-20.5-65.6h-13.2v65.6h-22zm22-132.9v47.9h12.5c3.9 0 7-.5 9.3-1.6 2.3-1.1 4.1-2.6 5.4-4.6 1.1-2 1.9-4.5 2.4-7.4.4-2.9.6-6.4.6-10.3s-.2-7.3-.6-10.3c-.4-2.9-1.3-5.5-2.6-7.7-2.7-4-7.9-6-15.5-6h-11.5zm80.5 132.9v-133h-25.5v-20.7h73v20.7h-25.5v133h-22zm57.2 0V565.5h65.6v20.7H462v45.1h38V652h-38v45.1h43.6v22H440zm151.1-109.4h-22v-5c0-5-1.2-9.4-3.6-13.1-2.4-3.7-6.4-5.5-12-5.5-3 0-5.5.6-7.3 1.7-1.9 1.2-3.4 2.6-4.5 4.3-1.2 1.9-1.9 4-2.4 6.4-.4 2.4-.6 4.9-.6 7.4 0 3 .1 5.5.3 7.6.2 2 .8 3.8 1.6 5.4.9 1.6 2.1 3 3.8 4.1 1.7 1.2 3.9 2.3 6.8 3.5l16.8 6.7c4.9 1.9 8.8 4.1 11.9 6.6 3 2.5 5.4 5.4 7.1 8.7 1.6 3.5 2.7 7.4 3.2 11.8.6 4.4.9 9.4.9 15 0 6.5-.6 12.5-1.9 18-1.3 5.5-3.4 10.3-6.3 14.1-3 4-7 7.2-11.9 9.5s-10.9 3.5-17.9 3.5c-5.3 0-10.3-.9-14.9-2.8s-8.6-4.5-11.9-7.8c-3.3-3.3-5.9-7.2-7.9-11.5-1.9-4.4-2.9-9.2-2.9-14.4v-8.2h22v6.9c0 4 1.2 7.7 3.6 10.9 2.4 3.2 6.4 4.9 12 4.9 3.7 0 6.7-.5 8.7-1.6 2.1-1.1 3.7-2.6 4.9-4.6 1.1-2 1.8-4.4 2.1-7.2.2-2.8.3-5.9.3-9.4 0-4-.1-7.3-.4-9.9-.3-2.6-.9-4.7-1.7-6.3-1-1.6-2.3-2.9-4-3.9-1.7-1-3.9-2.1-6.6-3.2l-15.8-6.5c-9.5-3.9-15.9-9-19.1-15.4-3.2-6.4-4.9-14.4-4.9-24.1 0-5.8.8-11.2 2.4-16.4 1.6-5.2 4-9.6 7.1-13.4 3-3.7 6.9-6.7 11.5-9 4.7-2.2 10.3-3.3 16.7-3.3 5.5 0 10.5 1 15 3s8.5 4.7 11.8 8c6.6 6.9 9.9 14.8 9.9 23.7v10.8zm6.5 109.4 34.3-153.7h18.3l34.3 153.7h-22l-6.5-33h-30l-6.5 33h-21.9zm54.3-53.7-10.8-55.7h-.4l-10.8 55.7h22zm42.6 53.7V565.5h21.2l33.2 92.6h.4v-92.6h22v153.7h-20.7l-33.7-92.4h-.4v92.4h-22zm86.7 0 34.3-153.7h18.3l34.3 153.7h-22l-6.5-33h-30l-6.5 33h-21.9zm54.4-53.7-10.8-55.7h-.4l-10.8 55.7h22zm43.4 53.7V565.5h22v131.7h43.6v22H879z" class="st5"/>
</svg>