<svg xmlns="http://www.w3.org/2000/svg" xml:space="preserve" id="Camada_1" x="0" y="0" version="1.1" viewBox="0 0 1024 1024">
  <style>
    .st1{fill:#fff}.st2{fill:#fbfbfb}.st3{fill:#fefefe}.st4{fill:#d9d9d9}.st5{fill:#fdfdfd}.st13{fill:#c9e8f7}.st20{fill:#b7d6e1}
  </style>
  <path fill="#015380" d="M726.1 164.8c9.2 7.8 18.4 15.6 27.5 23.5 63.5 55.2 100.9 125 115 207.6 9.4 55.1 6.7 108.8-16 160.7-13.5 30.8-30.8 59.2-52 85.3-66.3 81.8-151.4 138.5-245.6 182.7-119.7 56.1-245.7 88.1-377.7 96.8-8.7.6-17.5-.3-26.2-.5-.3-1.1-.6-2.2-.8-3.3 4-2.8 7.7-5.9 11.9-8.2 23.6-13.3 47.4-26.1 70.8-39.7 43.2-25.2 85.1-52.5 122.3-86.3 18.7-17 36-35.2 46-59 .6-1.3 1.2-2.7 1.7-4 .4-1.1.8-2.3 1.6-4.9-9.2-6.2-18.7-12.4-28-18.8-54.7-37.9-98.5-85.6-126.2-146.6-36.8-80.9-39.2-163.6-11.2-247.4 3.8-11.3 10.2-21.8 15.4-32.6 15.1-22.5 30.2-45 45.4-67.6 5.1-5.4 9.9-11.2 15.3-16.2 90.6-84.6 232.7-108 347.2-57.1 13 5.8 25.6 12.4 38.4 18.6 8.3 5.7 16.8 11.3 25.2 17z"/>
  <path d="M456.6 532.7c3.8-1.8 7.2-4.2 10-7.2 2.1-2.3 3.9-2.1 6.4-.7 10.6 5.7 16.8 14.7 19.4 26.3 1.6 2 1.1 4.4 1.1 6.7.1 15.3-.2 30.6.2 45.9 4.9 9.1 12.4 16 19.7 23 7.5 7.3 15.4 14.2 23.1 21.3 1.3 2.1 1 4.2-.9 5.7-9.3 6.9-19.4 12.4-30.9 14.1-14.7 2.3-28-2-40-10.3-10.1-7-18.8-15.4-23.1-27.4-1.9-5.5-5.7-8-11.1-9.6-5.2-1.6-11.1-2-14.9-6.8-2-.7-4-1.5-6-2.2.1-4.6 3.6-4.1 6.4-3.8 3.6.4 7.1 1.5 10.8 2.2 4.7.8 5.7-.2 4.3-4.5-1.3-4.1-2.3-8.3-3.5-12.5-1.8-6.2-5.6-9.7-12-11.2-15.8-3.9-30.5-10.3-43.5-20.4-19.6-15.2-33.4-34.4-41.4-58-5.1-15.2-9.2-30.6-8.7-46.8.1-2.4-.6-5.2 2.5-6.5 11.1 1.6 22.2 3.4 33.5 2.9.9 4.3-1.5 8.2-1.6 12.5-.2 11.9 0 23.8 5.1 35 .2.5.1 1 .1 1.5 6.9 15.3 17.3 27.1 32.9 33.9 3.8 0 6.9 2.2 10.4 3.1 16.3 3.9 32.2 3.7 47.4-4.6 1.4-.8 2.7-1.8 4.3-1.6z" class="st1"/>
  <path d="M826.5 412.2v-11.9c0-1.8-.4-3.5-2.4-3.8-3.4-.5-6.8-1.5-10.1-.3-.8-.1-1.6-.4-2.4-.4-1.6-.1-3.3-.4-4.9-.5-11.2-1-22.4-1.1-33.5-2.4-2.4-.3-3.6-1.2-4-3.4-.9-2.5-2.1-5.2-1.8-7.7.5-5.3-1.5-9.7-3.3-14.4-2.5-4.6-2.1-6.8 2.9-9.7 12.1-7.1 23.2-15.7 35.6-22.1 2-1.1 3.5-2.5 4.1-4.8-.9-4.8-3.6-8.8-5.8-12.9-3.9-7.6-4-7.5-12.4-6.1-1.1.2-2.3.1-3.4.2-2.6.7-5.2.2-7.8 1.1-6 1.9-11.9 4.2-18 5.4-6.2 1.2-12.1 4.3-18.7 3.7-5-6.8-10.1-13.5-15.1-20.3-2.1-5.6-1.9-10.2 3.4-14.3 9.5-7.4 17.3-16.8 26.6-24.5 2.3-1.9 5.5-4 4.2-8.1-6.7-7-13.3-14-20-21-2.7-3.7-5.1-1-7.1.5-9.8 7.1-19.2 14.7-29 21.9-2.5 1.8-4.1 4.2-4.9 7.2-2.2 2.5-4.5 2.4-7.1.4-5.6-4.2-11.6-7.9-17.8-11.3-.4-.9-.8-1.7-1.6-2.4-3.5-2.8-3.8-6.2-2.2-10.3 5.1-13.5 10.2-26.9 14.3-40.8.5-1.7 1.5-3.2.1-4.9-7.3-3.4-14.5-7.3-22.6-8.6-4.6-2.2-6.8.2-8.9 4-4.9 9.1-10.1 18-15.2 27-1.8.5-1.4 2.1-1.7 3.4-1.3 2.1-2.7 4.1-3.8 6.3-1 2-2.5 3-4.4 2.3-7.9-2.7-16.4-3.5-24.1-7-2.2-1.8-3-4.3-3.6-6.9-2-8.9-2.9-18-4.5-26.9-1.1-6.4-3.5-12.5-2.9-19.1v-.9c-1-1.3-2.5-1.6-4-1.6-7.6 0-15.3-.1-22.9 0-1.6 0-3 .4-3.9 1.7.5 2.5-1 4.8-1 7.3-.3 12.9-.7 25.8-.9 38.7 0 2.1-.8 3.8-1.3 5.8-2.2 3.1-4.5 6.2-6.7 9.2-1.5 1.3-1.1 3-1.1 4.7.3 27.3-.7 54.5-.5 81.8 0 1.5-.5 3 .6 4.3.2.3.2.6 0 .9-1.1 1.5-.5 3.2-.5 4.8-.4 17.4.6 34.9.1 52.3-.3 11.3-.7 22.6.3 33.8-1.3 3.7-4.4 6.7-5 10.8-3.1 2.3-2.3 5.7-2.3 8.8-.1 24.3-.1 48.6-.1 73v72.5c0 4 0 8.1 3.5 11 11.7 0 23.3-.1 35-.1 1.6-1.5 1-3.4 1-5.2.1-11.3.1-22.5 0-33.8 0-3.1.4-5.9 2.1-8.5-.1-2.5-.9-4.9-.5-7.4 2.2-16 .1-32.2 1.9-48.3 2.1-18.7 9-35.6 18.2-51.8.8-1.4 1.7-3.5 4.1-2.1.7.4 1.4.5 2.1.2.7-.7 1.4-1.4 1.9-2.2 9.4-13.9 22.2-22.9 38.2-27.7.8.2 1.7.1 2.5-.1 11.6-2.5 23.2-3 34.8-.5 1.8.4 3.6 2 5.7.6.6.1 1.3.1 1.9.3 19.1 6.4 32.7 19.2 42.2 36.6.6 1.7 1.2 3.4 1.7 5-.9 1.4.2 2.6.6 3.8 3.4 11.4 4.8 22.9 2.3 34.8-.9 4.5-3.3 8.7-2.8 13.4-.1.5-.2 1-.4 1.4-7.3 17.1-19.5 29.6-35.7 38.5-.3 0-.6.1-.8.3-2.6 3.4-6.2 3.1-9.9 2.9-18.6 5.7-36.6 4.4-53.9-4.9-4-2.1-6.9-5.6-11.3-7-2-1.7-3.8-1.8-6.2-.5-11.3 6.1-17.4 15.7-18.7 28.3-1.4 14.3-.5 28.6-.4 42.9 0 5.6-1.8 9.9-5.2 14-11.5 13.7-24.6 25.7-38.2 37.2-1.2 1.4-1 3 .1 4 4.5 4 7.3 10.1 14.3 10.8 2.1.2 4.1 1.3 6.1 2 18.8 7.1 36 4.2 52.2-7.4 10.2-7.3 17.5-16.8 22.9-27.8 2.5-5 5.9-7.7 11.2-8.9 5.5-1.3 10.8-2.9 15-6.9 2.7-1.1 35.1-15.1 48.5-20.8.2 0 .5-.2.8-.4 2.5-1.1 4.2-1.8 4.7-2 0-.5.3-1.2.8-1.8 6.5-4.9 15.7-12.2 18.1-12 1-.7 2-1.3 3-2 1.1-.3 1.8-1 2.1-2 1.5-1.8.2-3.3-.6-4.9-5.9-12.6-13.3-24.4-19.9-36.5-1.7-3.1-1.6-5.3.5-8.1 4.5-6.1 8.5-12.6 12-19.3 2.5-3.6 5.6-4.5 9.9-2.9 12.1 4.5 23.8 10.1 36.4 13.2 3.4.8 6.8 2.7 10.4.6 2.1-4.1 4.2-8.2 6.2-12.3 3.8-7.8 3.7-7.7-3.6-12.8-10.6-7.5-22.2-13.6-32.3-21.9-.9-1.4-1.6-2.9-3.3-3.6-3.2-1.3-4.1-3.5-3.6-7 1-6.6.3-13.4 3.4-19.7-.2-2 .9-2.9 2.5-3.8 3.2-1.7 6.6-2.2 10-2.7l32.4-4.2c2.9-.4 6.6 0 7.4-4.3-.2-3.3-.3-6.7-.3-10.2z" class="st2"/>
  <path d="M540.9 174.8c-2.8 0-5.1-1.3-7.4-2.7-18.7-10.7-38.7-14.6-59.6-9.8-30.5 6.9-51.4 31-51.1 63.3.1 8 2.3 15.7 5.6 23.1.7 1.6 2.2 3.1 1.4 5.1-24.7-26.5-19.6-66.8 11.2-88.6 2.6-1.8 5.2-3.5 7.8-5.2 24-11.6 47.9-12.8 72.1-.4 5.2 2.7 9.6 6.5 14.5 9.4 2.6 1.2 5.3 2.3 5.5 5.8z" class="st3"/>
  <path d="M499.1 706c17.7-.2 31.3-8.9 45-17.1 2.4-1.4 4-1.5 6.2.1 13.3 9.2 27.5 16.2 44.1 17.6-24.1 25.1-68 25.4-95.3-.6z" class="st4"/>
  <path d="M451.6 360.9c3.8 6.5 9.8 11.2 14.1 17.3.6.8 1.2 1.5 1.1 3.2-5.7-4-11.4-8.1-17-12.1-15-10.9-31.1-18.4-50.4-16.5-16.7 1.7-31.1 8-42 21.1-4.5 5.3-6.7 6.1-13.7 3.8 1.9-2.7 4-5.3 5.8-8.1 20-32 71.9-37.8 102.1-8.7zm72.1-51.2c-8.2-9.6-22.9-11.8-35.1-5.5-14.8 7.7-20.7 20.8-21.9 36.6-.2 2.3.2 4.7-.7 6.9-9.4-17-4.2-37.9 12.4-49.8 15.9-11.5 37.4-9.6 49.8 4.2 9.2 10.2 10 24.2 2.3 38.5-2.8.4-2.8-1.5-2.8-3.4-.1-2 .3-4 .9-5.8 1.2-3.2.2-6.1-.9-9 1.3-5-1-9-4-12.7zm-160-58.9c-13.8 1.6-25.8 6.3-33.1 19.2-3.1 5.5-5.7 11.3-5.9 17.8 2 3.2 1.2 6.9 1.7 10.3.9 5.3.7 10.9 5 15.1-.2 2.4 2.8 4.6.2 7.1-19.3-18.6-20.3-47.7-2-64.9 9.2-8.7 20.2-11.9 32.7-8.1 1.4.3 4.9.8 1.4 3.5z" class="st3"/>
  <path d="M281.8 377.7c-4.6-8.3-5.5-17.4-5.4-26.6 0-1.1.1-2.3.2-3.4 2.3-14.9 10.8-26.4 20.4-37.3 1.5-1.7 2.2-1 3.3.5 1.7 2.4 3.6 4.7 5.5 7-3.6 4.1-7.5 8-10.8 12.3-9.3 12.5-14.7 26.2-12.5 42.2.2 1.8.2 3.6-.7 5.3z" class="st5"/>
  <path d="M650.5 432.8c5.1 1.2 7.6 4.5 7.9 9.5.3 6.4-2.6 11.2-8 14.4-7.6 4.5-13.2 2.4-16.9-6.1 3.1-8.4 8.9-14.2 17-17.8z" class="st1"/>
  <path d="M402.6 246.8c-12.3 5-20.1 14.5-25.8 26.1-2.1 4.2-2.1 9.5-5.9 12.9-2.5-18.5 8.5-38.6 25.4-46.6 2.5-1.2 4.3-1.8 4.7 2 .1 1.9 1 3.7 1.6 5.6z" class="st5"/>
  <path d="M396.9 212.3c.1 5.5-4.1 10.3-9.2 10.5-5.3.2-10-4.4-10-9.6 0-5 4.9-9.6 10.2-9.6 5 0 8.9 3.8 9 8.7z" class="st2"/>
  <path fill="#232323" d="M582.6 538.8c1.4-3.3 2.8-6.6 4.3-10 1.2 1.7 2 3.5.4 5.4-1.1 1.3-1.3 2.6-.6 4.1.5 1.1.9 2.5-.2 3.2-3.7 2.6-2.8 6.5-2.8 10-.1 10.8-.1 21.6 0 32.4 0 4-1.4 5.7-5.5 5.7-16-.1-31.9 0-47.9 0-3.3 0-6.6-.1-9.9.8-2.1.5-4.2.9-6.6-.5 1.8-1.9 3.9-1.2 5.7-1.2 18.5-.1 36.9 0 55.4-.1 2.3 0 4.7.3 6.8-1.2.2-16.1-.6-32.3.9-48.6z"/>
  <path fill="#f8f8f8" d="M420.9 276.9c6.9 4.7 6.9 4.7 2.6 11.7-2.8 4.6-4 9.7-5.7 14.7-.4 1.2-.1 3-1.7 3.3-1.8.3-1.5-1.9-2.3-2.8-.1-9.6 1.4-18.8 7.1-26.9z"/>
  <path fill="#d3d3d3" d="M416.8 320.8c1.5-1 3-2.5 4.7-.3 1.3 1.6 3 1.8 4.9 1.5 1.6-.3 3.3-.1 4.8.8 3.7 2.2 3.9 4.4.4 7-2.7-.7-5.3-1.7-8-2.1-4.1-.6-6.3-2.8-6.8-6.9z"/>
  <path d="M335.1 351.9c2.8.2 5.1 1.4 5.1 4.3.1 2.9-2.1 4.5-4.9 4.6-2.8.1-5.1-1.2-5.1-4.2 0-2.8 2.1-4.3 4.9-4.7z" class="st2"/>
  <path fill="#1e1e1e" d="M650.6 400.8c13.3-4.2 26.7-4.3 40.1-.5.9.3 1.9.4 2.9.5-1.2.7-2.5.8-3.8.5-11.8-2.5-23.6-2.1-35.3 0-1.4.3-2.7.3-3.9-.5z"/>
  <path fill="#eee" d="M604.3 442.7c-2.5-6.1 2.4-9.1 5.3-12.9.3.3.6.6.8 1-2 3.9-4.1 7.9-6.1 11.9z"/>
  <path fill="#101010" d="M490.9 685.6c5.5-.5 11.1.7 16.6-.9.2 0 .3.1.5.1l.6.6c-2.6 1.1-5.3 1.3-8.1 1.3-4.1 0-8.2 0-12.4-.6.9-.1 1.8-.3 2.8-.5z"/>
  <path d="M693.5 538.7c1.2-.9 2.5-1.8 4.1-2.1 1.7-.6 3.3-1.1 5-1.7-1.8 4.3-4.9 5.5-9.1 3.8z" class="st2"/>
  <path fill="#dae3e4" d="M582.6 538.8c2.7-2.8 5-5.7 4.3-10 3.4-8.3 8.2-15.7 14.7-21.7 2.6-2.4 2.8-4.5 1.7-7.8-6.1-18.9-6.9-37.9.9-56.6-.6-2 .5-3.5 1.2-5.2 1.2-2.7 3.6-4.7 4.1-7.7.2-2 3.3-4.3 1-5.8-2-1.3-3.3 2-4.9 3.3-.4.3-.7.7-1 1.1-11.4 16.6-18.9 34.8-21 54.9-2 18.5-.8 37-1 55.5z"/>
  <path d="M545.6 554.4c-.1-43.9-.1-87.9-.2-131.8-1.7-2.2-3.2-4.7-5.3-6.6-3.9-3.4-4.9-7.4-4.7-12.4.3-9.3-.1-18.6 0-27.9.1-3.7-1.1-6.1-4.3-8.2-10.5-6.9-20.9-14.2-31.2-21.4-4.9-3.4-6.1-8.4-3.4-13 2.5-4.2 7.4-5.4 12.7-3.2 3.4 1.5 6.1 3.9 9.1 6 2.4 1.1 4.1.9 3.8-2.3-.7-2.9.6-5 2.2-7.3 4.7-6.7 5.3-10.9.9-18.4-2.5-2.9-5.4-5.3-9-6.9-12-5.2-27.7-2.6-37.2 6.5-11.5 11-16.8 24.2-13.2 40.2 5.2 9.6 12.6 16.6 23.4 19.5 1.9.5 3.8 1.3 5.5 2.4 5.2 3.4 4.8 10-.8 12.9-2 1-4.1 1.4-6.3 1.2-9.2-.6-16.8-4.7-23.4-11-4.2-4-7.9-8.5-12.8-11.9-2.3 1.9-1 3.5.4 5 1.8 2 3.5 4 5.3 5.8-2.2-1.8-4.5-3.5-6.9-5.1-13.8-9.5-28.3-17-46-16.5-18.6.6-34.6 6.3-47.1 20.2-3.9 4.3-8.3 6.5-13.7 7.3-7.1 6.7-19.8 5-26.2-3.9-8.2-11.4-4.2-23.1 11.1-32.7-2.9-2.6-5.9-4.9-8.5-7.6-4.9-5.1-9.6-10.5-14.4-15.7-2.2-.3-3.7.9-5.2 2.3-3.2 2.9-6.2 6.1-8.5 9.7-8.2 12.3-14.5 25.3-11.4 40.8.5 2.6.4 4.8-1 7-.4 4.3 2.2 7.2 5.1 9.7 2.3 1.9 4.5 3.9 6.6 6 19.1 18.8 47.9 23.3 71.9 11.5 11.2-5.5 21.8-12.1 33.4-16.7 4-1.6 8-3.1 11.1-6.3 2-2.8 3.7-5.9 6-8.4 3.3-3.6 8-3.9 11.6-1.1 4.2 3.2 5 7 2.6 11.7-1.1 2.2-2.4 4.3-3.5 6.5-.4 3 1.5 4.1 3.9 4.8 2.7.9 5.5 1.2 8.2 2.2 26.1 9.6 47.5 24.8 60.6 50.2 10.4 19 13.5 39.8 14 61 .3 11.1-.2 22.2 2.4 33.1 0 13.8.1 27.5 0 41.3 0 3.7 1.2 4.9 4.8 4.8 9.4-.3 18.9-.2 28.3-.3-1.3-10.7-.6-21.9-.7-33z" class="st13"/>
  <path d="M424.4 324.7c4.3-.6 6.1 1.6 7.3 5 2.6 1.1 5.2 2.1 7.9 3.2 3.1.1 2.6-2.1 2.7-4.1.6-8 1-16 4.5-23.4 10-21.4 36.9-35 60.9-31.7 8.3.6 15.9 3.4 23.1 7.2 3.6 1.9 5 2.1 4.8-2.7-.3-10.4 0-20.9 0-31.3.1-2.3-1-4-2.6-5.6-2.5-2.5-5.6-4.1-8.6-5.9-5.6-3.3-11.9-4.9-17.7-7.8-2.8-.9-5-2.6-6.7-4.9-1.6-2.2-3.7-3.8-6-5.2-5.8-3.6-13.9-2.2-17.5 3-3.6 5.2-2.5 9.3 4 14.5 2.2 1.8 4.4 3.9 3.2 7.2-1.3 3.2-4.3 4.1-7.4 3.8-6-.5-10.7-3.1-13.8-8.5-5.6-9.8-3.8-22.6 4.5-30.8 8.3-8.1 22.1-10 31.9-4.3 2.9 1.7 5.2 4.1 8.1 5.8 1.4.4 3.1-.2 4.4.7 5.5 3.7 11.9 6 16.9 10.4 2.6 2.3 5.6 4.2 8.4 6.3 1.3.9 2.5 1.5 4.1.9 2-.7 1.4-2.4 1.5-3.8.1-1.6-.3-3.3.3-4.9.1-14 .1-27.9.2-41.9-.3-1.1-.9-2-2-2.5-1.8-.5-3.6-1.1-5.3-2.2-27.3-17.2-55.4-18.6-83.6-2.7-25.7 14.5-35.9 45.2-30.3 67.5 1.7 6.6 5.4 11.9 8.2 17.8 1.7 1.6 3.3 3.2 5 4.7 4.9 4.1 6.5 8.4 4.5 12.3-2.5 5-7.9 7.1-13.9 5.5-1.5-.4-3.4-2.2-4.5.6-.2 3.2 3.9 5.7 1.2 9.3-3.1 4-4.1 9-5.8 13.6-.6 1.5-.7 3.3-2.4 4.1-.6 5.9 1 11.5 3 17 1.9 2.3 4.5 4.2 7.5 3.8zm-98.3-31.6c-.3 6.8 3.1 11.8 7.5 16.3.4.6 1 1.2 1.5 1.8C345.4 323 358.3 329 374 328c7.3-.5 14.3-2.9 21.6-3 5.5.1 3-3.6 2.5-5.8-4.3-19.8-1.3-38.2 11.2-54.5 1.1-1.5 1.6-2.5.5-4.3-2.6-4.4-5-8.9-7.4-13.4-1.6-1.7-3.3-2-5.3-.6-11.1 7.5-20.2 16.6-24.2 29.8-1 3.2-.6 6.7-2.2 9.8.7 1.5 2 .8 3.1.9 6.4.1 10.2 3.4 10.1 8.8-.1 5.9-4.8 10-11 9.6-4.1-.2-7.8-1.6-11-4.2-8.2-6.7-10.2-15.6-9-25.6 1.1-9.2 6.1-16.8 10.7-24.5-.8-1.9-2.4-1.9-4.2-1.7-14.9 1.3-25.5 9.1-32.4 22-2.7 5.1-6.2 10.5-3.7 16.9 1.7 1.1 2.9 3 2.8 4.9z" class="st13"/>
  <path fill="#dcdcdc" d="M750.6 503.8c1.6-8.4 2.2-8.7 9.9-5.6 12.4 5 24.9 10.1 37.8 13.7 3 .9 6.4.7 9 2.9-.5 1.2-1.2 2.4-1.6 3.6-1 3.3-2.9 3.8-6 2.8-14.9-5.1-29.6-10.6-44.1-16.4-1.6-.7-3.1-2.3-5-1zm-25.3-202c-7.4-6.9-7.5-7-.3-13.9 11.5-11.1 23-22 34.5-33 2.9 1.7 3.1 3.1.6 6-10.9 12.6-21.3 25.5-32.7 37.6-.9.9-1.4 2.2-2.1 3.3zm36.3 66c-.7-1.3-1.3-2.7-2.1-4-1.5-2.2-.9-3.6 1.2-4.9 15.2-9.5 29.6-20.4 45.9-28.2 2.5 2.6 2.3 4.4-.9 6.5-11.5 7.7-22.8 15.7-34.1 23.5-2.3 4-4.1 8.6-10 7.1z"/>
  <path d="M772.5 436.8c-2.3-5.2.8-5.9 4.9-6.7 15.9-2.9 32-4.8 48.1-6.3 1.5 2 1.3 4-.1 6l-20.4 2.7c-1.6.2-3.4-.3-4.6 1.2-8.3 2.3-17 2.2-25.4 4.2-1 .3-1.9-.2-2.5-1.1zm-169-215c-3.6.9-5.3-.7-5.8-4.1-2.3-14.9-4.7-29.7-7-44.6-.3-1.7-1-3.8 1.8-4.3 3.9 11.4 5.5 23.3 8 35 1.2 6 2 12 3 18z" class="st4"/>
  <path fill="#1d1d1d" d="M683.5 195c-7.3-3.1-14.6-6.1-21.9-9.2.6-.2 1.3-.8 1.9-.6 8.2 2.2 15.9 5.6 23.5 9.4 2.3 1.2 1.5 3.8.9 5.9-2.1 7.8-4.2 15.7-6.4 23.5-2.6 9.6-5.3 19.2-7.9 28.8-.6-.3-1.3-.6-1.9-.9-1.9-2.2-1.3-4.7-.7-7.1 3.7-14.1 7.8-28.1 11.9-42 .7-2.6 3.2-5 .6-7.8z"/>
  <path fill="#222" d="M785 311.9c-13.7 4.9-28 7.7-41.9 11.6-1.3.4-2.3-.1-2.7-1.5 8.4-2.1 16.7-4.2 25.1-6.3 1.7-.5 3.4-1.3 5.1-2 4-.8 7.7-3 12-2 .7.1 1.6.2 2.4.2z"/>
  <path fill="#292929" d="M635.4 675.7c2.4-1.6 4.8-3.2 7.2-4.7 1.2 1.2 3.3 2.2 2.1 4.4-1.1 2.1-3.1 2.2-5.2 1.7-1.3-.5-2.7-1-4.1-1.4zm-73.8-509.8c.3-.4.7-1 1-1 10 .4 20-1.2 30 1-1.4 1.2-3.1 1-4.8 1h-21.4c-1.6-.1-3.4.2-4.8-1zm97.2 488.9c1.5-2.1 3-4.2 4.4-6.2.9 5.1-.3 6.7-4.4 6.2zm166.9-242c1.7 5.6.5 11.3.9 16.9h-1.2c.7-2 .5-4 .1-6 .1-3.6.1-7.2.2-10.9zm-43.2-101c-4 .7-8 1.3-12 2 3.9-1.8 7.6-3.8 12-2z"/>
  <path fill="#dadada" d="M683.5 195c3.5.3 3.2 2.4 2.5 5-4.6 16.8-9 33.7-14.3 50.3-.1.5 0 1 0 1.5-7.7-3.7-7.7-3.6-4.6-11.9C672.6 225 678 210 683.5 195z"/>
  <path fill="#005994" d="M462.9 612.8c.1 4-2.8 6.9-7.3 7-4.1.1-7.7-3-7.8-6.7-.1-3.6 3.2-6.7 7.1-6.8 4.2-.1 7.9 2.9 8 6.5zm-11.4-19.9c-2.9-.2-4.9-1.6-4.9-4.9 0-3 1.8-4.7 4.6-4.8 3.2-.1 5.4 1.7 5.3 5.2-.1 2.9-1.9 4.4-5 4.5zm16.9 41.4c-.4 2.7-1.7 4.6-4.7 4.6-2.7 0-4.5-1.5-4.6-4.2-.1-2.8 1.4-4.7 4.4-4.9 3.1-.3 4.3 1.7 4.9 4.5zm13.4 20.7c-2.3-.2-4.2-1.1-4.2-3.8 0-2.6 1.9-3.9 4.2-4 2.4-.1 4.1 1.2 4.1 3.8 0 2.7-1.5 3.9-4.1 4zm2.6-17.8c-1.4-.1-2.5-.8-2.6-2.3-.1-1.5.9-2.5 2.3-2.7 1.5-.2 2.4.8 2.6 2.3.1 1.6-.8 2.4-2.3 2.7zm163.4-24.3c.1 4-3 7.1-7.3 7.2-4.2.1-7.6-3-7.9-6.8-.2-3.6 2.9-6.7 7.1-6.8 4.4-.2 8 2.7 8.1 6.4zm-5.1-19.9c-2.1.1-3.7-1.9-3.8-4.6-.1-3 1.8-5.1 4.9-5.2 3.1 0 4.9 1.8 4.9 5 .1 3.4-1.8 4.8-6 4.8zm-10.5 36.6c3 .2 4.7 1.8 4.6 4.7 0 3-1.9 4.8-4.7 4.7-2.8 0-4.6-1.8-4.6-4.8.1-2.9 1.8-4.4 4.7-4.6zM613.7 655c-2.6 0-4-1.4-4-3.7 0-2.8 1.9-4.3 4.5-4.2 2 .1 4.1 1.1 3.9 3.6-.1 2.7-1.8 4.2-4.4 4.3zm-.7-17.5c-1.7-.4-2.7-1.1-2.7-2.6s.8-2.5 2.4-2.5c1.7 0 2.8 1 2.8 2.7-.2 1.6-1.6 1.9-2.5 2.4z"/>
  <path d="M530.6 321.9c-.9-4.8-2.8-9.2-6.9-12.2-.4.8-.6 1.8.1 2.3 3.8 2.9 2.4 5.8.8 9.5-1.8 4.1-5.9 7.2-5.1 12.3 1.4 1.5.5 2-1 2.1 1.9 2.6 4.7 4.1 7.2 6.1 2.3 1.8 3.9 1.5 4.8-1.4-.6-6.2 1.4-12.5.1-18.7zm-122.9 60c-8.3 2.1-16.1 5.2-23.6 9.2-7.6 4.1-15.3 8.1-23 11.9-22.6 11-50.8 6.1-68.6-11.8-2-2-3.7-4.3-6-5.8-2.9-1.9-4.5-4.3-4.8-7.7-2-8.4-2.8-17-3-25.7-.1-1.8.1-3.7-2.3-4.4-.4.9-1.1 1.7-1.3 2.7-10.7 42.4 28.4 84.7 71.6 78 29.1-4.5 47.6-21.9 61-46.4zm90.9 63.9c-12-23.9-31.9-38.5-56-48.7-6-2.5-12.7-2.7-18.2-6.6-4.8 6.6-8 14.2-12 21.3-1.4 2.5-.5 3.2 2 3.3 4.1.2 8.4.3 12.4 1.1 22.6 4.2 40.9 15.2 54 34.5 8.7 14.8 11.8 30.8 11 47.8-.1 2.5 0 4.8 1.8 6.9 9.1 10.8 15.4 23.1 19.8 36.4 0-16.9.8-33.9-1-50.8-1.6-15.8-5.4-31.2-13.8-45.2z" class="st20"/>
  <path fill="#cfc969" d="M712.8 462.5c-2.4-10.2-8.2-17.9-17.3-23.2 7.9 10 11.8 21 8.8 33.9-5.1 21.6-27 39.4-53.9 25.1-7-3.7-11.6-9.6-15.1-16.9-1.6 2.8-.1 5.6-1.6 7.7 7.4 18.4 26.5 28.9 46 25.6 23.1-4.1 38.7-28.5 33.1-52.2z"/>
  <path d="M537.8 223.4c-1.3-1-2.7-2-4-3-8-6.3-16.3-11.9-26.3-14.6-1.1 1.3-1.1 2.7-.6 4.2 1.9 5.4 1.2 10.7-.9 15.9-.5 1.3-.8 2.5-.4 3.8 1.8.8 3.6 1.5 5.5 2.3 9 3.5 17.7 7.6 24.4 14.8.4-1.7.8-3.5 1.2-5.2 1.1-5.3 1.9-10.6 5.7-14.9 0-3 0-6 .1-9-.3 1.3-.8 2.6-.8 3.8-.2 3.4-1.3 4-3.9 1.9zm-92.2 106.5c-.3-19 8.5-33.3 22.9-44.7 11.5-9.1 24.9-12 39.2-11.5-7.1-2.1-14.3-.6-21.3.3-21 2.6-44.4 20.7-45.9 45.7-.3 4.4-.1 8.9-.9 13.2 5.6 3.3 6.1 3.2 6-3zm-116.8-15.2c1.1 1.7 2.8 3.2 2.8 5.5 5.3 7.1 12.9 11.3 20.4 15.5 3.7 2.1 7 2.1 10.8.2 10.4-5.3 21-10 32.9-11.1-4.1-.4-8.2-.1-12.4.4-19.1 2.3-35.7-2.7-48.7-17.5-4.8-6.5-7.8-13.8-8.2-22.7-1 1.4-1.4 2.1-1.8 2.8-.2 3.3-.6 6.5-.6 9.8 0 6.1 1 12.1 4.8 17.1z" class="st20"/>
  <path d="M446.8 508.9c8.4-6.3 13.2-14.7 14.5-25.1-6 11.2-14.6 19.2-27.6 21.5-21.8 3.9-46.9-9.1-44.4-39.5.7-7.9 4.2-14.4 9.5-20.6-3.2-.3-5.1 2.1-7.7 1.6-13.9 14.1-16.1 35.8-5.2 52.3 12.8 19.7 41.4 24.3 60.9 9.8z" class="st2"/>
  <path d="M547.6 718.8c-7.7-.2-14.3-2.2-20.8-5-1.3-.6-2.9-1.4-3-3.1-.1-1.6 1.7-1.9 2.8-2.5 5.5-3.1 11-6.1 16.4-9.3 2.4-1.5 4.4-1.7 6.8.1 6.2 4.4 12.7 8.4 19.7 11.7.7.3 1.7.6 1.7 1.6 0 1.2-1.2 1.4-2 1.9-7 3.2-14.5 3.9-21.6 4.6z" class="st1"/>
  <path d="M456.5 458.8c-1.9 4.8-5.5 6.9-10.5 6.5-6.4-.5-10.8-4.1-13.2-9.9-3.4-8.2-.5-13.4 8.3-15.9 8 4.2 12.9 10.8 15.4 19.3z" class="st20"/>
  <path d="M433.6 613.9c2.7.6 4 0 2.7-3-2.5-5.5-4.1-11.3-5.4-17.1-2-8.5-6.9-13-15.7-15.1-30-7.2-53.5-24.4-69.6-50.7-14.5-23.8-21.8-49.9-20.8-78-4.3-1.3-8.7-2.3-12.9-3.9-3.7-1.4-4.9-.6-5.1 3.4-.6 18.6.8 37 5.5 55 7.6 28.5 22.1 53.1 43.3 73.5 15.6 15.1 33.2 27.1 54.2 33.6 2.8-1.7 5.6-1.6 8.7-.8 4.9 1.1 10 2 15.1 3.1zM536.5 648c-.4.9-.7 2-1.4 2.6-7.3 5.7-15.3 10.4-24.3 13.1-8.6 2.6-17.4 3-26 .4-20.3-6.2-35.3-18.7-42.8-39.1-.8-2.2-1.7-4.4-4.3-5.1-7.4-2-14.7-4.1-22.1-6.2 2.5 6 4.9 12 7.5 17.9 7.4 16.4 16.9 31.2 32.3 41.5 10.7 7.2 22.5 11.1 35.3 12.5 5.6 1 11.2 1.5 16.6-.9 6.2-1.9 12.2-4.1 18-7 10.1-4.9 15.4-12 13.1-23.6-.3-2.1 1-4.8-1.9-6.1zm117.4-23.1c-3.6 6.9-7.3 13.7-12.4 19.8-13.3 15.9-36.4 26.2-58.7 18.7-9.4-3.2-18.2-7-24.1-15.5-2.3 2.4-3.1 18.7-1 21.1.1.1.2.2.4.3 7.2 5.6 14.5 11 23.5 13.6 14.6 4.2 28.9 2.4 43-2 3.5-2 6.9-4 10.8-5.2 3.1-.5 6.7-.3 7.2-4.7 6.2-4.6 11.1-10.4 16.1-16.1 2.7-1.2 4.1-3.3 4.4-6.2 1.5-3 3.4-5.7 5-8.7 4.6-8.5 8.4-17.3 12.3-26.2-7 .7-13.2 4.5-20 5.8-3.2.5-5 2.5-6.5 5.3z" class="st1"/>
</svg>
