<?xml version="1.0" encoding="utf-8"?>
<!-- Generator: Adobe Illustrator 28.1.0, SVG Export Plug-In . SVG Version: 6.00 Build 0)  -->
<svg version="1.1" id="Camada_1" xmlns="http://www.w3.org/2000/svg" xmlns:xlink="http://www.w3.org/1999/xlink" x="0px" y="0px"
	 viewBox="0 0 1024 1024" style="enable-background:new 0 0 1024 1024;" xml:space="preserve">
<style type="text/css">
	.st0{fill:#0D2F46;}
	.st1{fill:#005B74;}
	.st2{fill:#64A7A9;}
	.st3{fill:#005E76;}
	.st4{fill:#FFFFFF;}
</style>
<g>
	<path class="st0" d="M376.8,512.5c6.6,10.2,13.5,20.2,19.6,30.7c19.4,33.1,32.8,68.6,39.9,106.4c0.6,2.9,2.6,6.8,5,8
		c14.3,7.1,21.9,20.5,31.3,32.1c3.4,4.2,6.7,5.8,11.9,5.7c19.2-0.3,38.3-0.2,57.5,0c5.1,0.1,8.5-1.4,12.1-5.3
		c10.5-11.3,21.8-22,32.7-33c1.3-1.4,2.8-3.2,3-5c4-32.5,18.4-61.6,31-91.1c7.4-17.4,15.8-34.3,24.4-52.8c2.6,8.1,4.8,15,7,22
		c15.8,50,31.7,100,47.3,150.1c0.7,2.4-1,6.4-2.8,8.5c-32,36.1-64.3,71.9-96.3,108.1c-27.8,31.4-55.2,63.1-82.8,94.7
		c-0.3,0.3-0.7,0.5-1.4,0.9c-10.9-16-21.8-31.9-32.7-48C448.7,792.7,413.7,741,379,689.1c-2.2-3.3-3.4-7.9-3.4-11.9
		c-0.3-53.7-0.2-107.3-0.3-161c0-1.1,0-2.1,0-3.2C375.8,512.9,376.3,512.7,376.8,512.5z M640,595.4c-0.6,0-1.2,0-1.7,0
		c9.9,47.9-1.1,92.2-22.3,134.9c15.9-17.5,30.7-35.3,45.2-53.4c1.4-1.8,1.1-5.6,0.5-8.2c-2.4-9.8-5.2-19.5-8.1-29.2
		C649.1,624.8,644.5,610.1,640,595.4z"/>
	<path class="st1" d="M844.4,320.1c0,137.4,0,274,0,411.5c-10,0-20,0-30.5,0c0,22,0,43.2,0,64.8c-14.1,0-27.7,0-42.4,0
		c0-2.2,0-4.6,0-6.9c0-128.3,0.1-256.6,0-385c0-5.1,1.3-8.7,5.5-12c22-17.4,36.3-40.4,46-66.3c1.9-5.1,4.1-6.7,9.1-6.2
		C836,320.4,840,320.1,844.4,320.1z"/>
	<path class="st1" d="M280.6,463.3c21.6,17,45,22.7,70.8,21.4c0,116.9,0,233.4,0,350.3c-23.6,0-47,0-70.8,0
		C280.6,711.7,280.6,588.3,280.6,463.3z"/>
	<path class="st0" d="M801.5,209.3c8.5,20.4,11.3,41.6,7.9,63.4c-5.7,37.6-22,69.3-53,92.4c-17.5,13.1-38,18.2-59.1,21
		c-2.6,0.4-5.6-2-8.5-3c-3.8-1.4-7.6-3.5-11.5-3.8c-6.2-0.4-1.9-1-8.2-1c56.7-6,93.6-26.4,123.8-77.7c-0.7,0.4-1.4,0.8-2,1.3
		c-23,23.9-52.6,31.9-84.2,34.9c-35.8,3.4-71.1-1.2-106.3-7.2c-9.5-1.6-19.3-1.9-28.9-2c-41.3-0.2-82.5-0.7-123.8,0.2
		c-22.2,0.5-44.4,4-66.7,5.3c-29,1.6-58.1,0.4-85-11.5c-42.7-19.1-66.7-52.8-72.3-99.3c-0.2-1.4,0-2.9,0-3.3
		c6.4,10.5,12.1,22.3,20,32.4c21.4,27.4,50.3,41.8,84.8,42c123.8,0.5,247.6,0.8,371.4,0C745.2,293.1,790.2,264.2,801.5,209.3z"/>
	<path class="st2" d="M748.8,834.9c-24.1,0-48.1,0-73,0c0-4.8,0-9.3,0-13.7c0-20.5-0.3-41,0.1-61.5c0.1-3.8,1.7-8.4,4.2-11.3
		c15.6-18,31.8-35.6,47.5-53.6c1.6-1.9,2.6-5.7,1.9-8.1c-17-55.7-34.2-111.3-51.4-166.9c-3.5-11.4-6.8-22.8-10.5-34.9
		c29.2,4.6,56.2-0.6,81.1-18.2C748.8,589.6,748.8,712.1,748.8,834.9z"/>
	<path class="st3" d="M280.6,186.4c6.5,0,12.1-0.3,17.7,0.1c6,0.4,8.4-1.3,8.1-7.8c-0.5-12.8-0.2-25.7-0.2-38.5c0-2.7,0-5.3,0-8.5
		c15.3,0,29.9,0,44.9,0c0,45.4,0,90.8,0,138.1c-11.2-0.9-22.7-0.6-33.6-2.9c-10.7-2.2-20.8-7.1-31.1-10.8c-4.4-1.6-6.1-4.3-6-9.2
		C280.7,227.1,280.6,207.3,280.6,186.4z"/>
	<path class="st1" d="M135.9,881.2c0-39.4,0-78.4,0-118c12.9,0,25.5,0,38.8,0c0,25.4,0,51,0,77.6c26.7,0,52.9,0,79.6,0
		c0,13.9,0,26.9,0,40.4C215.1,881.2,175.8,881.2,135.9,881.2z"/>
	<path class="st3" d="M135.9,141.2c39.4,0,78.3,0,117.8,0c0,12.5,0,25,0,38.3c-26.2,0-52.4,0-79.5,0c0,27.4,0,54.1,0,81.2
		c-13.2,0-25.5,0-38.3,0C135.9,221,135.9,181.3,135.9,141.2z"/>
	<path class="st3" d="M772.1,840.9c26.1,0,51.5,0,77.4,0c0-26.2,0-51.8,0-77.7c12.8,0,25.4,0,38.6,0c0,39.2,0,78.3,0,118
		c-38.4,0-77,0-116,0C772.1,868,772.1,855,772.1,840.9z"/>
	<path class="st3" d="M888.1,141.2c0,40,0,79.3,0,119.2c-12.5,0-24.7,0-37.8,0c0-2.8,0-5.4,0-8c0-22.1,0-44.2,0.2-66.2
		c0.1-5-1.4-6.6-6.5-6.5c-21.2,0.2-42.4,0.1-63.5,0c-2.4,0-4.9,0-7.8,0c0-13,0-25.5,0-38.5C811.1,141.2,849.3,141.2,888.1,141.2z"/>
	<path class="st3" d="M542,149.5c0,39.7,0,79.3,0,119.2c-16.5,0-32.6,0-49.2,0c0-39.6,0-79.1,0-119.2
		C509.4,149.5,525.5,149.5,542,149.5z"/>
	<path class="st2" d="M676.5,166.8c15.8,0,31.1,0,47.4,0c0,2.3,0,4.4,0,6.6c0,27.9-0.1,55.8,0.2,83.8c0,5-1.5,7.6-6.3,8.2
		c-13.5,1.7-27,3.4-41.2,5.2C676.5,234.7,676.5,200.9,676.5,166.8z"/>
	<path class="st2" d="M406.6,268.6c-10.5,0-20.3,0-30.7,0c0-45.5,0-90.9,0-136.8c10.2,0,20.4,0,30.7,0
		C406.6,177.5,406.6,222.9,406.6,268.6z"/>
	<path class="st2" d="M595.1,268.6c-9.4,0-18.5,0-28.3,0c0-40.4,0-80.6,0-121.4c9.1,0,18.4,0,28.3,0
		C595.1,187.3,595.1,227.6,595.1,268.6z"/>
	<path class="st1" d="M375.5,727.7c15.2,22.6,29,44,43.9,64.6c6.6,9.1,9.7,18.2,8.5,29.2c-0.4,4.2-0.1,8.5-0.1,13.4
		c-17.6,0-34.8,0-52.3,0C375.5,799.7,375.5,764.6,375.5,727.7z"/>
	<path class="st3" d="M618.4,197.2c11.2,0,22.1,0,33.5,0c0,23.6,0,47.1,0,71.3c-10.9,0-22,0-33.5,0
		C618.4,244.9,618.4,221.6,618.4,197.2z"/>
	<path class="st2" d="M467.8,268.7c-12.5,0-24.4,0-37.1,0c0-13.8,0-27.4,0-41.4c12,0,24.3,0,37.1,0
		C467.8,241.1,467.8,254.6,467.8,268.7z"/>
	<path class="st2" d="M652.4,778.8c0,19.6,0,37.7,0,56.3c-15.9,0-31.5,0-48.2,0C620.3,816.3,635.8,798.1,652.4,778.8z"/>
	<path class="st0" d="M571.6,631c-5.2,7.6-9.3,14-13.9,20.1c-1.1,1.4-3.8,1.9-5.8,2.1c-3.8,0.3-7.6,0.1-12.5,0.1
		c0-6.6-0.2-12.8,0.2-19c0.1-1.2,2.7-3.1,4.1-3.1C552.5,630.9,561.2,631,571.6,631z"/>
	<path class="st0" d="M454.3,631.5c10.4,0,19.8,0,29.7,0c0,7.1,0,14,0,21.9c-4.8,0-9.9,0.1-15-0.1c-1.1,0-2.4-1.2-3-2.2
		C462.3,645,458.7,638.8,454.3,631.5z"/>
	<path class="st4" d="M453.2,493.7c-2.3-0.3-3.4-0.8-4.4-0.6c-21.7,4.5-26.6-13.6-36.8-27.1c13.2,0.7,24.4,4.5,34.2,10.1
		C450.2,478.5,450.7,487.1,453.2,493.7z"/>
	<path class="st4" d="M572.4,492.8c1.4-5.1,2.4-9.9,4-14.5c0.5-1.4,2.1-3,3.5-3.4c10.3-3.1,20.6-5.9,30.9-8.8c0.4,0.5,0.7,1,1.1,1.4
		c-5.5,8.2-11,16.4-16.6,24.4c-0.6,0.8-2.5,0.9-3.7,0.9C585.5,492.8,579.5,492.8,572.4,492.8z"/>
	<path class="st2" d="M247.8,400.6c-1.5-1-34.1-28.2-35.3-29.6c-0.4,104.2-0.4,208.5-0.6,312.7c0,2-0.2,4-0.3,6.4
		c-3.1,0-5.9,0-9.2,0c0-112.9,0-225.6,0-338.4c-3.3-7.9-5.9-15-5.9-15l-1.9-5.5c-7.1,0-13.6,0-20.5,0c0,3.2,0,5.9,0,8.5
		c0,121.8,0.1,243.5,0.1,365.3c0,10.8,0.2,21.7-0.1,32.5c-0.2,5.7,1.6,8.3,7.7,7.8c5.7-0.5,11.6-0.1,17.9-0.1c0,22.3,0,43.6,0,65.3
		c17.4,0,34.2,0,52.1,0c0-135.8,0-271.3,0-407.1C250.4,402.4,249.1,401.5,247.8,400.6z"/>
	<path class="st0" d="M745.6,409.6c-30.3,29.4-65.9,34.6-104.7,30.7c0-5.5-0.3-11.1,0.2-16.7c0.1-1.4,2.5-3.6,4-3.7
		c29.3-2.3,54.5-14.9,78.4-30.7c2.4-1.6,4.5-3.5,6.7-5.3c-3.5,0.4-6.4,1.7-9.3,2.8c-3.2,1.1-6.4,2.2-9.6,3.1
		c-39.7,10.8-80,10.1-120.4,7.6c-0.1,9.9-0.4,18.3-0.8,23c15.8,0.3,31.7,0.1,49.1,0.1c-7.8,4.7-14.5,8.6-21.2,12.6
		c-20.5,12.2-41.2,24.2-61.5,36.6c-2.2,1.4-4.5,5.4-4.2,7.9c1.5,13.9,5.7,90.4,7.2,111c-31.7,0-62.7,0-94.8,0
		c0.8-11.1,1.6-22.4,2.6-33.7c2.2-26,4.5-52,6.4-78.1c0.2-2.3-2.1-5.7-4.3-7.1c-23.6-14.9-47.5-29.4-71.2-44.1
		c-1.9-1.2-3.7-2.3-7.1-4.3c3.5-0.3,5.3-0.6,7.2-0.6c10.8,0,21.8,1,32.4-0.2c1.6-0.2,3.1-0.3,4.6-0.3c-1-4-1.6-12.6-1.9-22.9
		c-30.6,1.5-61.2,1.4-91.5-5.1c-26.5-5.7-51.6-14.9-72.5-32.8c-42.2-36.1-54.2-84.3-54.9-137.1c0-3.1,0-6.3,0-10.7
		c-16.9,34.8-17.3,66.3-7,102.8c0,0,10.1,40.1,26.3,53.3c48.2,39.2,75.9,39.9,78.5,40.5c16.6,4.1,33.1,8.4,49.7,12
		c6.7,1.4,13.8,1.1,20.5,1.6c0,6.6,0,12.5,0,19.1c-18.7-0.2-37.6,3.4-54.4-5.1c-16.2-8.2-30.9-19.2-46.2-28.9c0,7.3-0.1,15,0.1,22.6
		c0.1,1.8,1,4,2.2,5.2c22.1,20.7,48,29.5,78.2,24.4c7.2-1.2,14.4-2.6,21.8-3.9c0,11.9,0.3,23.4-0.1,34.9c-0.2,5.1,1.4,8.6,5,11.7
		c10.1,8.7,20.2,17.3,29.9,26.3c2.8,2.6,5.5,6.1,6.6,9.6c5.6,17.8,10.5,35.9,15.9,53.8c1.7,5.8,2.8,11.2,0.1,17
		c-1.2,2.7-1.2,5.9-1.7,9c48.3,0,95.8,0,143.9,0c-0.8-2.3-1.2-4.1-2-5.6c-3.7-6.3-3.3-12.5-0.9-19.2c6.8-18.4,13-37,19.7-55.4
		c1-2.8,3-5.5,5.3-7.5c10-8.8,20.4-17.1,30.2-26c2.3-2.1,4-5.9,4.1-9c0.4-13.3,0.2-26.5,0.2-40.2c9.7,1.7,18.7,3.8,27.8,4.9
		c27,3.3,52.2-0.7,73.1-20c1.7-1.6,3.9-3.7,4-5.8C745.9,426.5,745.6,419.3,745.6,409.6z M448.8,493.2c-21.7,4.5-26.6-13.6-36.8-27.1
		c13.2,0.7,24.4,4.5,34.2,10.1c4.1,2.3,4.6,10.9,7,17.6C450.9,493.4,449.7,493,448.8,493.2z M595.2,491.9c-0.6,0.8-2.5,0.9-3.7,0.9
		c-6,0.1-12.1,0-19.1,0c1.4-5.1,2.4-9.9,4-14.5c0.5-1.4,2.1-3,3.5-3.4c10.3-3.1,20.6-5.9,30.9-8.8c0.4,0.5,0.7,1,1.1,1.4
		C606.4,475.6,600.9,483.8,595.2,491.9z"/>
	<path class="st2" d="M449.3,345.3c-2.6,5.3-3.8,70.5,0,74.7c5.9,6.5,52.4,54.8,63.5,55.4c5.2,0.3,61.8-49.9,63.5-53.8
		c2-4.2,1.9-69.6-2.3-77.3C574,344.3,451.1,341.6,449.3,345.3z"/>
</g>
</svg>
